<?xml version="1.0" encoding="utf-8"?>
<!-- Generator: Adobe Illustrator 27.8.1, SVG Export Plug-In . SVG Version: 6.00 Build 0)  -->
<svg version="1.1" id="Capa_1" xmlns="http://www.w3.org/2000/svg" xmlns:xlink="http://www.w3.org/1999/xlink" x="0px" y="0px"
	 viewBox="0 0 396.4 120.1" style="enable-background:new 0 0 396.4 120.1;" xml:space="preserve">
<style type="text/css">
	.st0{fill:#FFFFFF;}
</style>
<g>
	<path class="st0" d="M47.2,108.4H29.1V0c10,0,18.1,8.1,18.1,18.1V108.4z"/>
	<path class="st0" d="M86.5,43.8h18.1v76.3c-10,0-18.1-8.1-18.1-18.1V43.8z"/>
	<rect x="40.6" y="2" transform="matrix(0.5703 -0.8214 0.8214 0.5703 -24.7798 64.938)" class="st0" width="18.1" height="108.4"/>
	<path class="st0" d="M139.4,39.7L139.4,39.7c-4.2,6.6-13,8.6-19.6,4.4l-33.1-21l7.6-12L139.4,39.7z"/>
	
		<rect x="69.2" y="19.5" transform="matrix(0.7948 -0.6069 0.6069 0.7948 1.4627 57.4183)" class="st0" width="32.8" height="14.1"/>
	<g>
		<path class="st0" d="M155.1,65.3V39.4c0-5.4,1.7-6.8,6.3-6.8c3.3,0,5.4,0.7,7.8,6l8.7,19.5c0.3,0.6,0.5,0.8,0.8,0.8
			c0.5,0,0.6-0.3,0.6-1L179.2,35c0-1.6,0.9-2.5,2.5-2.5h2.4c1.6,0,2.5,0.9,2.5,2.5v25.9c0,5.4-1.7,6.8-6.3,6.8c-3.3,0-5.4-0.7-7.8-6
			l-8.7-19.5c-0.3-0.6-0.5-0.8-0.8-0.8c-0.5,0-0.6,0.3-0.6,1l0.1,22.9c0,1.6-0.9,2.5-2.5,2.5h-2.4C156,67.8,155.1,66.9,155.1,65.3z"
			/>
		<path class="st0" d="M214.9,41.2h2.5c1.6,0,2.5,0.9,2.5,2.5v12.1c0,9.7-4.9,12.5-13.3,12.5s-13.3-2.8-13.3-12.5V43.7
			c0-1.6,0.9-2.5,2.5-2.5h2.5c1.6,0,2.5,0.9,2.5,2.5v12.2c0,4.8,1.7,6.1,5.8,6.1s5.8-1.3,5.8-6.1V43.7
			C212.4,42,213.3,41.2,214.9,41.2z"/>
		<path class="st0" d="M244.5,56.9L233,58.1c1,3,3.4,4.1,7,4.1c1.8,0,3.9-0.3,6.2-0.9c1.8-0.4,2.8,0.4,2.8,2.1v0.8
			c0,1.5-0.7,2.4-2.1,2.8c-2.9,0.8-5.7,1.2-8.2,1.2c-8.2,0-13.7-4.5-13.7-13.8c0-8.8,4.7-13.8,13.8-13.8c7.6,0,12.2,3.6,12.2,10.4
			C250.9,54.8,249.3,56.4,244.5,56.9z M243.8,50.3c0-2.6-1.6-4-5-4c-3.8,0-5.8,1.7-6.2,6.3l9.3-0.9
			C243.5,51.5,243.8,51.2,243.8,50.3z"/>
		<path class="st0" d="M278.5,41.2h2.7c1.8,0,2.6,1.1,2.1,2.8l-5.4,16.4c-2,6-3.9,7.8-9,7.8c-5,0-7-1.8-9-7.8L254.5,44
			c-0.6-1.7,0.2-2.8,2.1-2.8h2.7c1.5,0,2.4,0.7,2.8,2.1l4.6,15.6c0.7,2.3,1.3,2.6,2.2,2.6c0.9,0,1.5-0.3,2.2-2.6l4.6-15.6
			C276.1,41.8,277.1,41.2,278.5,41.2z"/>
		<path class="st0" d="M286.7,54.5c0-8.8,4.9-13.8,13.7-13.8c8.9,0,13.7,5,13.7,13.8s-4.9,13.8-13.7,13.8S286.7,63.3,286.7,54.5z
			 M306.5,54.5c0-5.3-2-7.5-6.1-7.5s-6.1,2.2-6.1,7.5c0,5.2,2,7.5,6.1,7.5C304.5,61.9,306.5,59.7,306.5,54.5z"/>
	</g>
	<g>
		<path class="st0" d="M181.2,75.3h2.7c1.6,0,2.5,0.9,2.5,2.5v30.3c0,1.6-0.9,2.5-2.5,2.5h-2.7c-1.6,0-2.5-0.9-2.5-2.5V96h-16.3
			v12.1c0,1.6-0.9,2.5-2.5,2.5h-2.7c-1.6,0-2.5-0.9-2.5-2.5V77.9c0-1.6,0.9-2.5,2.5-2.5h2.7c1.6,0,2.5,0.9,2.5,2.5v11.2h16.3V77.8
			C178.7,76.2,179.6,75.3,181.2,75.3z"/>
		<path class="st0" d="M192.4,97.2c0-8.8,4.9-13.8,13.7-13.8s13.7,5,13.7,13.8s-4.9,13.8-13.7,13.8S192.4,106,192.4,97.2z
			 M212.2,97.2c0-5.3-2-7.5-6.1-7.5s-6.1,2.2-6.1,7.5c0,5.2,2,7.5,6.1,7.5S212.2,102.4,212.2,97.2z"/>
		<path class="st0" d="M241.2,86.1v1.6c0,1.6-0.9,2.5-2.7,2.5c-5.7,0.1-5.9,0.6-5.9,2.6v15.3c0,1.6-0.9,2.5-2.5,2.5h-2.7
			c-1.6,0-2.5-0.9-2.5-2.5V91.8c0-6.2,2.2-7.9,13.7-8.1C240.3,83.6,241.2,84.5,241.2,86.1z"/>
		<path class="st0" d="M245.4,76.3c0-2.6,1.4-4.2,4.2-4.2c2.8,0,4.2,1.6,4.2,4.2s-1.4,4.1-4.2,4.1S245.4,78.9,245.4,76.3z
			 M245.8,108.1V86.4c0-1.6,0.9-2.5,2.5-2.5h2.7c1.6,0,2.5,0.9,2.5,2.5v21.7c0,1.6-0.9,2.5-2.5,2.5h-2.7
			C246.7,110.5,245.8,109.7,245.8,108.1z"/>
		<path class="st0" d="M271.2,90h-10.1c-1.6,0-2.5-0.9-2.5-2.5v-1.1c0-1.6,0.9-2.5,2.5-2.5h16.5c4.5,0,5.1,5,1.8,8.6L269,103.6
			c-0.4,0.5-0.2,0.8,0.5,0.8h10c1.6,0,2.5,0.9,2.5,2.5v1.2c0,1.6-0.9,2.5-2.5,2.5h-16.4c-4.5,0-5.2-5-1.8-8.6l10.6-11.1
			C272.2,90.4,272,90,271.2,90z"/>
		<path class="st0" d="M284.8,97.2c0-8.8,4.9-13.8,13.7-13.8c8.9,0,13.7,5,13.7,13.8s-4.9,13.8-13.7,13.8
			C289.7,111,284.8,106,284.8,97.2z M304.6,97.2c0-5.3-2-7.5-6.1-7.5s-6.1,2.2-6.1,7.5c0,5.2,2,7.5,6.1,7.5S304.6,102.4,304.6,97.2z
			"/>
		<path class="st0" d="M344,96v12.1c0,1.6-0.9,2.5-2.5,2.5H339c-1.6,0-2.5-0.9-2.5-2.5V95.9c0-4.8-1.7-6.1-5.8-6.1s-5.8,1.3-5.8,6.1
			v12.2c0,1.6-0.9,2.5-2.5,2.5h-2.6c-1.6,0-2.5-0.9-2.5-2.5V96c0-9.7,4.9-12.5,13.3-12.5S344,86.2,344,96z"/>
		<path class="st0" d="M364.6,90.1h-7.4v10.6c0,2.8,1.2,3.9,4.2,3.9c1.4,0,2.4-0.3,3.3-0.3c1.7,0,2.3,0.7,2.3,2v1.4
			c0,1.4-0.7,2.4-2,2.7c-8.6,2.1-15.5-0.1-15.5-9.6V80.3c0-1.6,0.9-2.5,2.5-2.5h2.7c1.6,0,2.5,0.9,2.5,2.5V84h7.4
			c1.6,0,2.5,0.9,2.5,2.5v1.2C367.1,89.2,366.2,90.1,364.6,90.1z"/>
		<path class="st0" d="M389.9,99.7l-11.5,1.2c1,3,3.4,4.1,7,4.1c1.8,0,3.9-0.3,6.2-0.9c1.8-0.4,2.8,0.4,2.8,2.1v0.8
			c0,1.5-0.7,2.4-2.1,2.8c-2.9,0.8-5.7,1.2-8.2,1.2c-8.2,0-13.7-4.5-13.7-13.8c0-8.8,4.7-13.8,13.8-13.8c7.6,0,12.2,3.6,12.2,10.4
			C396.4,97.6,394.8,99.2,389.9,99.7z M389.3,93.1c0-2.6-1.6-4-5-4c-3.8,0-5.8,1.7-6.2,6.3l9.3-0.9C389,94.3,389.3,94,389.3,93.1z"
			/>
	</g>
</g>
</svg>
